<?xml version="1.0" encoding="utf-8"?>
<!-- Generator: Adobe Illustrator 26.4.1, SVG Export Plug-In . SVG Version: 6.00 Build 0)  -->
<svg version="1.1" xmlns="http://www.w3.org/2000/svg" xmlns:xlink="http://www.w3.org/1999/xlink" x="0px" y="0px"
	 viewBox="0 0 640 640" style="enable-background:new 0 0 640 640;" xml:space="preserve">
<style type="text/css">
	.st0{display:none;}
	.st1{display:inline;fill:none;stroke:#231F20;stroke-width:0.25;stroke-miterlimit:10;}
	.st2{fill:url(#Circle_00000093888229680790585720000001945207087785476506_);}
	.st3{fill:url(#C_00000163040699627205143290000004966249922673972874_);}
	.st4{fill:url(#P_00000012442172871679353550000013517624803286320513_);}
	.st5{display:inline;}
	.st6{fill:none;stroke:#231F20;stroke-width:0.25;stroke-miterlimit:10;}
	.st7{fill:#252525;}
	.st8{fill:url(#Circle_00000043446907012659183550000006247440893480484756_);}
	.st9{fill:url(#C_00000067935185949715839160000006121551869100928418_);}
	.st10{fill:url(#P_00000046326408966398002880000006005249126515588779_);}
</style>
<g id="Layer_5">
	<g id="Grid_Horizontal_00000050649786114368280350000009240894311975617175_" class="st0">
		<line class="st1" x1="560.27" y1="0" x2="560.27" y2="640"/>
		<line class="st1" x1="80" y1="0" x2="80" y2="640"/>
		<line class="st1" x1="0" y1="80.02" x2="640" y2="80.02"/>
		<line class="st1" x1="0" y1="560.02" x2="640" y2="560.02"/>
		<line class="st1" x1="0" y1="159.98" x2="640" y2="159.98"/>
		<line class="st1" x1="0" y1="480" x2="640" y2="480"/>
		<line class="st1" x1="0.27" y1="300.45" x2="640.27" y2="300.45"/>
		<line class="st1" x1="0.71" y1="340.45" x2="640.71" y2="340.45"/>
	</g>
	<g id="Submark_Logo_00000165210178968264862910000002187991753506875010_">
		
			<linearGradient id="Circle_00000101802081076693542790000007757908571609185687_" gradientUnits="userSpaceOnUse" x1="287.8264" y1="301.4602" x2="353.5964" y2="339.4325">
			<stop  offset="0" style="stop-color:#F04D2D"/>
			<stop  offset="0.4893" style="stop-color:#EF3643"/>
			<stop  offset="0.5" style="stop-color:#EF3544"/>
			<stop  offset="1" style="stop-color:#ED1B5D"/>
		</linearGradient>
		
			<path id="Circle_00000086683568162169594750000014513918728395303299_" style="fill:url(#Circle_00000101802081076693542790000007757908571609185687_);" d="
			M358.56,317.37c1.84,23.39-17.53,42.77-40.92,40.92c-18.4-1.45-33.31-16.36-34.76-34.76c-1.84-23.39,17.53-42.77,40.92-40.92
			C342.19,284.05,357.1,298.96,358.56,317.37z"/>
		
			<linearGradient id="C_00000169528169920817248450000002472159601445062289_" gradientUnits="userSpaceOnUse" x1="121.6055" y1="181.8057" x2="538.7114" y2="422.6219">
			<stop  offset="0" style="stop-color:#F04D2D"/>
			<stop  offset="0.4893" style="stop-color:#EF3643"/>
			<stop  offset="0.5" style="stop-color:#EF3544"/>
			<stop  offset="1" style="stop-color:#ED1B5D"/>
		</linearGradient>
		
			<path id="C_00000122705654341880018510000004870304673794445976_" style="fill:url(#C_00000169528169920817248450000002472159601445062289_);" d="
			M560.27,320.73c0,0.67,0,1.33-0.01,2c-0.99,122.21-93.09,222.72-211.74,236.98c-0.35,0.05-0.72,0.1-1.1,0.14
			c-0.1,0.01-0.2,0.03-0.32,0.04c-0.8,0.08-1.61,0.11-2.43,0.11c-0.3,0-0.61,0-0.9-0.03c-10.43-0.35-19.25-7.01-22.79-16.28
			c-1.08-2.82-1.52-5.85-1.52-8.87v-0.35c0-3.02,0.44-6.05,1.52-8.87c3.54-9.26,12.36-16.02,22.79-16.38l0,0
			c93.51-11.92,165.81-91.78,165.81-188.5c0-104.96-85.12-190.05-190.12-190.05c-1.5,0-2.99,0.01-4.47,0.05
			c-1.1,0.03-2.19,0.06-3.28,0.11c-1.1,0.04-2.19,0.09-3.28,0.16c-90.8,5.46-165.01,77.62-177.69,166.14v0.03
			c-0.95,13.08-11.88,23.39-25.2,23.39c-13.95,0-25.26-11.31-25.26-25.26c0-0.58,0.03-1.15,0.06-1.72l0.04-0.29
			c0.09-0.76,0.18-1.52,0.27-2.28C95.15,171.95,196.43,80,319.45,80C452.44,80,560.27,187.78,560.27,320.73z"/>
		
			<linearGradient id="P_00000152977663031183498600000006522637381451796143_" gradientUnits="userSpaceOnUse" x1="173.7739" y1="294.4993" x2="415.5654" y2="434.0977">
			<stop  offset="0" style="stop-color:#F04D2D"/>
			<stop  offset="0.4893" style="stop-color:#EF3643"/>
			<stop  offset="0.5" style="stop-color:#EF3544"/>
			<stop  offset="1" style="stop-color:#ED1B5D"/>
		</linearGradient>
		
			<path id="P_00000075871226773232281070000012337313447188096899_" style="fill:url(#P_00000152977663031183498600000006522637381451796143_);" d="
			M459.67,320.45c0,62.95-41.89,116.1-99.36,133.31c-1.24,0.38-2.47,0.75-3.73,1.09c-0.63,0.18-1.28,0.35-1.93,0.52
			c-0.29,0.08-0.58,0.15-0.88,0.22c-2.78,1.05-5.8,1.62-8.94,1.62c-14.01,0-25.37-11.33-25.37-25.31c0-1.46,0.13-2.89,0.37-4.26
			c0.01-0.08,0.03-0.16,0.04-0.24c0.01-0.09,0.03-0.18,0.04-0.25c0.03-0.11,0.05-0.23,0.08-0.34c0.06-0.34,0.14-0.7,0.24-1.04
			c0.06-0.24,0.13-0.49,0.19-0.73c0.2-0.71,0.43-1.42,0.7-2.1c0.1-0.24,0.2-0.48,0.3-0.72c2.93-7.1,9.02-12.57,16.52-14.67
			c0.04-0.01,0.08-0.03,0.11-0.04c0.56-0.23,1.13-0.44,1.71-0.63c0.04-0.03,0.09-0.04,0.13-0.04c0.57-0.2,1.14-0.38,1.73-0.54
			c0.16-0.06,0.33-0.11,0.49-0.15c0.55-0.15,1.09-0.3,1.64-0.43c0.03-0.01,0.05-0.03,0.08-0.03c0.23-0.05,0.47-0.11,0.7-0.16
			c0.16-0.05,0.32-0.1,0.48-0.15c0.08-0.01,0.14-0.03,0.2-0.05c1.47-0.44,2.92-0.92,4.35-1.44c0.56-0.2,1.1-0.4,1.65-0.62
			c0.55-0.2,1.09-0.42,1.64-0.65c0.55-0.22,1.08-0.43,1.61-0.67c1.08-0.47,2.14-0.95,3.2-1.46c0.52-0.24,1.04-0.49,1.56-0.76
			c0.85-0.43,1.69-0.87,2.51-1.32c0.33-0.18,0.65-0.35,0.98-0.54c1.07-0.59,2.12-1.21,3.15-1.85c0.42-0.25,0.85-0.52,1.27-0.8
			c0.96-0.61,1.92-1.24,2.85-1.91c0.47-0.32,0.94-0.66,1.4-0.99c0.93-0.66,1.84-1.35,2.73-2.06c0.46-0.34,0.9-0.71,1.34-1.08
			c0.44-0.35,0.88-0.71,1.31-1.09c0.44-0.37,0.86-0.75,1.29-1.11c0.43-0.37,0.85-0.76,1.27-1.15c0.42-0.38,0.84-0.77,1.26-1.16
			c0.42-0.39,0.82-0.78,1.22-1.19c2.83-2.81,5.48-5.81,7.92-8.97c11.28-14.65,18.09-32.97,18.38-52.85
			c0.01-0.47,0.01-0.94,0.01-1.42c0-49.06-39.61-88.84-88.46-88.84c-16.83,0-32.56,4.72-45.96,12.91
			c-26.21,16.05-41.72,45.09-41.72,75.92v183.14c0,2.05-0.18,4.11-0.7,6.1c-1.28,4.85-4.05,9.14-7.75,12.43
			c-3.23,2.87-7.21,4.97-11.51,6c-0.42,0.1-0.84,0.19-1.27,0.28c-1.57,0.32-3.2,0.47-4.83,0.47c-2.08,0-4.1-0.25-6.03-0.72
			c-0.29-0.06-0.57-0.14-0.85-0.22c-0.04-0.03-0.08-0.03-0.11-0.04c-0.08-0.03-0.15-0.04-0.23-0.06c-0.8-0.23-1.59-0.52-2.35-0.84
			c-1.03-0.42-2.02-0.86-2.96-1.39c-0.04-0.01-0.08-0.04-0.11-0.06c-0.86-0.48-1.7-1.01-2.5-1.58c-5.85-4.23-9.9-10.81-10.52-18.31
			v-0.05l0.41-180.78l0.01-2.94c-0.03-0.47-0.03-0.94-0.03-1.42c0-4.99,0.25-9.91,0.76-14.76c0.18-1.62,0.37-3.23,0.6-4.82
			c0.06-0.47,0.13-0.94,0.2-1.4c5.26-35.11,23.55-65.93,49.75-87.35c23.93-19.56,54.44-31.28,87.69-31.28
			c29.76,0,57.34,9.39,79.95,25.4C435.89,231.13,459.67,273.02,459.67,320.45z"/>
	</g>
</g>
<g id="Codepassion">
</g>
</svg>
