<svg width="185" height="40" viewBox="0 0 185 40" fill="none" xmlns="http://www.w3.org/2000/svg">
<g clip-path="url(#clip0)">
<path d="M4.76454 40.0003L0 36.4401C7.1076 27.505 11.3532 16.8759 12.2757 5.69922L18.2717 6.16408C17.257 18.4694 12.5847 30.1712 4.76454 40.0003Z" fill="url(#paint0_linear)"/>
<path d="M22.8588 8.84729C17.6492 8.84729 12.5388 7.91758 7.6543 6.08051L9.83132 0.645261C18.7838 4.011 28.5574 3.80092 37.3462 0.0507812L39.7699 5.38769C34.5857 7.60023 29.1062 8.76013 23.4884 8.84059C23.2786 8.84506 23.0687 8.84729 22.8588 8.84729Z" fill="url(#paint1_linear)"/>
<path d="M22.7318 34.0708C20.0106 27.6076 20.0498 20.5029 22.8402 14.0686C25.6307 7.63437 30.8426 2.63717 37.5097 0L39.7836 5.39949C29.0899 9.63013 23.938 21.5018 28.3012 31.8695L22.7318 34.0708Z" fill="url(#paint2_linear)"/>
<path d="M86.7465 38.0773V30.8162C86.7465 30.3491 86.8296 29.9446 86.9933 29.6071C87.157 29.2674 87.3969 28.9992 87.7128 28.7981H85.1807V27.8281H89.1265V28.6863C88.7506 28.8517 88.4693 29.0998 88.2801 29.435C88.0933 29.7702 87.9988 30.177 87.9988 30.662V38.0795H86.7465V38.0773Z" fill="#D1D3D4"/>
<path d="M93.6172 32.1664L94.6181 35.3891C94.6873 35.626 94.7403 35.8741 94.7795 36.1311C94.8188 36.3881 94.8649 36.6898 94.9179 37.0407H94.9525C94.9594 36.8619 94.9663 36.701 94.9686 36.5557C94.9733 36.4105 94.9802 36.2741 94.9917 36.1423C95.0032 36.0126 95.0171 35.8853 95.0309 35.7623C95.0471 35.6394 95.0655 35.5031 95.0886 35.3556L95.6628 31.8535H96.8943L95.8127 38.0978H94.4428L93.465 35.0762C93.3728 34.7946 93.2944 34.484 93.2298 34.1443C93.1652 33.8046 93.1122 33.4582 93.0753 33.1028H93.0407C93.0038 33.4582 92.9508 33.8068 92.8862 34.1443C92.8216 34.4817 92.7432 34.7946 92.651 35.0762L91.6731 38.0978H90.3033L89.2217 31.8535H90.4532L91.0274 35.3444C91.0505 35.4941 91.0689 35.6305 91.0851 35.7579C91.1012 35.8853 91.1127 36.0126 91.1197 36.1423C91.1266 36.2719 91.1335 36.4082 91.1427 36.5557C91.1496 36.701 91.1566 36.8619 91.1658 37.0407H91.2004C91.2557 36.692 91.3018 36.3881 91.3434 36.1266C91.3849 35.8674 91.4402 35.6171 91.5094 35.3802L92.4987 32.1686H93.6172V32.1664Z" fill="#D1D3D4"/>
<path d="M101.984 35.4895C101.813 35.4895 101.73 35.5789 101.73 35.7577V35.9254C101.73 36.7947 102.244 37.2305 103.273 37.2305C103.849 37.2305 104.304 37.0473 104.638 36.6852C104.973 36.3209 105.139 35.7376 105.139 34.9353C105.139 34.2201 104.966 33.6748 104.62 33.2949C104.274 32.915 103.81 32.7272 103.227 32.7272C102.745 32.7272 102.309 32.801 101.926 32.9485C101.541 33.0982 101.204 33.2792 100.914 33.4938L100.51 32.6021C100.655 32.4903 100.824 32.3831 101.015 32.278C101.207 32.1752 101.421 32.0813 101.654 31.9987C101.889 31.916 102.141 31.8512 102.413 31.802C102.685 31.7528 102.971 31.7305 103.271 31.7305C103.755 31.7305 104.188 31.802 104.571 31.9473C104.954 32.0925 105.282 32.3026 105.549 32.582C105.819 32.8613 106.022 33.201 106.165 33.6033C106.308 34.0033 106.379 34.4615 106.379 34.9733C106.379 36.0505 106.112 36.8618 105.579 37.4048C105.046 37.9479 104.299 38.2183 103.34 38.2183C102.38 38.2183 101.67 38.0172 101.204 37.6127C100.741 37.2059 100.508 36.6427 100.508 35.9209V35.6639C100.508 34.8839 100.9 34.4928 101.682 34.4928H102.936V35.4851H101.984V35.4895Z" fill="#D1D3D4"/>
<path d="M110.371 38.0974V34.0835C110.371 33.1762 109.968 32.7225 109.163 32.7225C108.808 32.7225 108.471 32.7873 108.144 32.9124C107.818 33.0398 107.533 33.1873 107.286 33.3594L106.963 32.4789C107.23 32.2844 107.574 32.1124 107.987 31.9604C108.402 31.8084 108.831 31.7324 109.276 31.7324C110.044 31.7324 110.625 31.9425 111.019 32.3671C111.414 32.7918 111.612 33.3795 111.612 34.1282V38.0974H110.371Z" fill="#D1D3D4"/>
<path d="M115.055 37.2414C115.516 37.2414 115.867 37.1677 116.109 37.0246C116.349 36.8794 116.471 36.676 116.471 36.4167C116.471 36.2759 116.427 36.1508 116.339 36.0435C116.252 35.9362 116.134 35.8379 115.989 35.753C115.843 35.6681 115.682 35.5965 115.504 35.5362C115.329 35.4759 115.147 35.4177 114.965 35.3574C114.672 35.268 114.4 35.1697 114.148 35.0669C113.895 34.9641 113.676 34.8367 113.491 34.6892C113.307 34.5394 113.161 34.3606 113.053 34.1528C112.947 33.945 112.892 33.6924 112.892 33.3929C112.892 33.1493 112.949 32.9236 113.065 32.718C113.18 32.5124 113.344 32.3381 113.553 32.195C113.763 32.0498 114.019 31.9358 114.319 31.8553C114.619 31.7726 114.949 31.7324 115.308 31.7324C115.73 31.7324 116.12 31.7771 116.482 31.8665C116.842 31.9559 117.17 32.0744 117.46 32.2219L117.137 33.1136C116.87 32.9728 116.593 32.8722 116.309 32.8141C116.026 32.7538 115.717 32.7247 115.389 32.7247C114.997 32.7247 114.686 32.7828 114.451 32.9035C114.218 33.0219 114.1 33.1896 114.1 33.4041C114.1 33.5293 114.137 33.641 114.208 33.7326C114.282 33.8243 114.379 33.9092 114.501 33.9829C114.624 34.0567 114.771 34.126 114.939 34.1886C115.108 34.2534 115.292 34.3137 115.493 34.3741C115.839 34.4858 116.146 34.5998 116.413 34.7205C116.681 34.8389 116.909 34.9797 117.098 35.1384C117.285 35.2993 117.43 35.487 117.529 35.7016C117.628 35.9161 117.679 36.1709 117.679 36.4614C117.679 36.9822 117.472 37.4046 117.052 37.7309C116.634 38.0594 115.996 38.2225 115.135 38.2225C114.229 38.2225 113.494 38.0639 112.926 37.7443L113.226 36.819C113.487 36.9464 113.773 37.047 114.084 37.1252C114.393 37.2012 114.716 37.2414 115.055 37.2414Z" fill="#D1D3D4"/>
<path d="M116.861 30.2936C116.729 30.2936 116.628 30.3227 116.556 30.383C116.482 30.4411 116.446 30.5417 116.446 30.6847V31.0311H115.168V30.5171C115.168 30.1372 115.288 29.8422 115.525 29.6321C115.763 29.4198 116.111 29.3125 116.572 29.3125H117.873V30.2936H116.861Z" fill="#D1D3D4"/>
<path d="M125.64 38.098V35.2329H124.134C123.65 35.2329 123.265 35.3134 122.979 35.4721C122.691 35.633 122.548 35.9012 122.548 36.2811C122.548 36.6007 122.649 36.842 122.854 37.0052C123.057 37.1683 123.304 37.251 123.597 37.251C123.749 37.251 123.908 37.2354 124.074 37.2019C124.24 37.1683 124.395 37.1236 124.54 37.0633L124.736 37.9885C124.367 38.1383 123.948 38.212 123.47 38.212C123.17 38.212 122.891 38.1718 122.628 38.0936C122.368 38.0154 122.142 37.8969 121.95 37.736C121.759 37.5751 121.607 37.3739 121.496 37.1326C121.385 36.8912 121.33 36.6096 121.33 36.2923C121.33 34.9379 122.303 34.2607 124.252 34.2607H125.645V34.082C125.645 33.8808 125.62 33.6976 125.567 33.5299C125.511 33.3623 125.428 33.2148 125.313 33.0897C125.2 32.9623 125.05 32.8639 124.865 32.7947C124.681 32.7254 124.46 32.6896 124.199 32.6896C123.731 32.6896 123.313 32.7567 122.949 32.8908C122.585 33.0226 122.257 33.188 121.964 33.3824L121.561 32.5466C121.699 32.4415 121.865 32.341 122.061 32.2449C122.255 32.1465 122.469 32.0616 122.698 31.9812C122.928 31.9029 123.173 31.8426 123.436 31.7979C123.694 31.7532 123.959 31.7309 124.229 31.7309C124.674 31.7309 125.052 31.8001 125.368 31.9409L125.818 31.418H127.199L126.279 32.4997C126.477 32.7008 126.627 32.9355 126.729 33.2036C126.828 33.4696 126.879 33.7601 126.879 34.073V38.098H125.64Z" fill="#D1D3D4"/>
<path d="M129.75 31.8535V38.0978H128.519V31.8535H129.75ZM132.188 31.8535V38.0978H130.956V31.8535H132.188Z" fill="#D1D3D4"/>
<path d="M135.077 35.411C135.169 35.2188 135.319 35.0535 135.524 34.9194C135.732 34.7853 135.997 34.7182 136.32 34.7182H137.056V35.744H136.306C135.647 35.744 135.236 36.039 135.077 36.6246V38.0974H133.834V34.1841C133.834 33.8422 133.896 33.5226 134.023 33.2186C134.148 32.9191 134.332 32.6577 134.57 32.4386C134.807 32.2196 135.1 32.0453 135.448 31.9202C135.799 31.795 136.195 31.7324 136.641 31.7324C137.086 31.7324 137.482 31.795 137.833 31.9202C138.181 32.0475 138.476 32.2196 138.718 32.4386C138.961 32.6577 139.145 32.9191 139.27 33.2186C139.396 33.5203 139.459 33.8422 139.459 34.1841V38.0974H138.216V34.1841C138.216 33.7617 138.082 33.4108 137.819 33.1359C137.554 32.861 137.162 32.7247 136.638 32.7247C136.124 32.7247 135.734 32.8633 135.471 33.1359C135.206 33.4108 135.075 33.7617 135.075 34.1841V35.411H135.077Z" fill="#D1D3D4"/>
<path d="M140.911 36.6824C141.179 36.8389 141.469 36.9685 141.778 37.0735C142.09 37.1786 142.417 37.23 142.763 37.23C143.33 37.23 143.773 37.0445 144.091 36.6712C144.41 36.3002 144.569 35.7415 144.569 34.9995C144.569 34.2106 144.41 33.634 144.091 33.2697C143.773 32.9077 143.33 32.7244 142.763 32.7244C142.394 32.7244 142.064 32.7758 141.774 32.8809C141.481 32.9859 141.19 33.1312 140.9 33.3167L140.611 32.3914C140.927 32.197 141.28 32.0383 141.67 31.9176C142.062 31.7925 142.465 31.7344 142.878 31.7344C143.822 31.7344 144.548 32.0137 145.053 32.5702C145.56 33.1267 145.812 33.9112 145.812 34.9213C145.812 36.0142 145.551 36.8389 145.03 37.3909C144.509 37.9451 143.773 38.2223 142.821 38.2223C141.93 38.2223 141.199 38.0301 140.623 37.6434L140.911 36.6824Z" fill="#D1D3D4"/>
<path d="M148.965 37.2414C149.426 37.2414 149.777 37.1677 150.019 37.0246C150.261 36.8794 150.381 36.676 150.381 36.4167C150.381 36.2759 150.335 36.1508 150.247 36.0435C150.157 35.9362 150.042 35.8379 149.897 35.753C149.751 35.6681 149.59 35.5965 149.415 35.5362C149.237 35.4759 149.057 35.4177 148.873 35.3574C148.582 35.268 148.308 35.1697 148.056 35.0669C147.803 34.9641 147.586 34.8367 147.401 34.6892C147.217 34.5394 147.072 34.3606 146.963 34.1528C146.855 33.945 146.802 33.6924 146.802 33.3929C146.802 33.1493 146.859 32.9236 146.975 32.718C147.09 32.5124 147.254 32.3381 147.464 32.195C147.676 32.0498 147.929 31.9358 148.227 31.8553C148.527 31.7726 148.857 31.7324 149.219 31.7324C149.641 31.7324 150.033 31.7771 150.392 31.8665C150.752 31.9559 151.077 32.0744 151.37 32.2219L151.047 33.1136C150.778 32.9728 150.503 32.8722 150.219 32.8141C149.936 32.7538 149.629 32.7247 149.299 32.7247C148.91 32.7247 148.596 32.7828 148.361 32.9035C148.128 33.0219 148.01 33.1896 148.01 33.4041C148.01 33.5293 148.045 33.641 148.119 33.7326C148.192 33.8243 148.289 33.9092 148.411 33.9829C148.534 34.0567 148.681 34.126 148.847 34.1886C149.016 34.2534 149.2 34.3137 149.401 34.3741C149.747 34.4858 150.053 34.5998 150.321 34.7205C150.588 34.8389 150.817 34.9797 151.006 35.1384C151.193 35.2993 151.338 35.487 151.437 35.7016C151.536 35.9161 151.587 36.1709 151.587 36.4614C151.587 36.9822 151.377 37.4046 150.96 37.7309C150.542 38.0594 149.904 38.2225 149.043 38.2225C148.139 38.2225 147.401 38.0639 146.834 37.7443L147.134 36.819C147.394 36.9464 147.68 37.047 147.989 37.1252C148.303 37.2012 148.628 37.2414 148.965 37.2414Z" fill="#D1D3D4"/>
<path d="M150.77 30.2936C150.641 30.2936 150.54 30.3227 150.466 30.383C150.392 30.4411 150.358 30.5417 150.358 30.6847V31.0311H149.08V30.5171C149.08 30.1372 149.198 29.8422 149.438 29.6321C149.675 29.4198 150.023 29.3125 150.485 29.3125H151.785V30.2936H150.77Z" fill="#D1D3D4"/>
<path d="M69.6098 18.1124C68.8972 18.1124 68.3184 17.5515 68.3184 16.8609C68.3184 16.1703 68.8972 15.6094 69.6098 15.6094C70.3224 15.6094 70.9013 16.1703 70.9013 16.8609C70.9036 17.5515 70.3224 18.1124 69.6098 18.1124Z" fill="#404040"/>
<path d="M70.4647 16.8643C70.4647 17.3225 70.0819 17.6912 69.6091 17.6912C69.1387 17.6912 68.7559 17.3202 68.7559 16.8643C68.7559 16.4061 69.1387 16.0352 69.6091 16.0352C70.0819 16.0352 70.4647 16.4061 70.4647 16.8643Z" fill="#404040"/>
<path d="M93.8452 18.1124C93.1326 18.1124 92.5537 17.5515 92.5537 16.8609C92.5537 16.1703 93.1326 15.6094 93.8452 15.6094C94.5578 15.6094 95.1366 16.1703 95.1366 16.8609C95.1366 17.5515 94.5578 18.1124 93.8452 18.1124Z" fill="#404040"/>
<path d="M94.7011 16.8643C94.7011 17.3225 94.3182 17.6912 93.8455 17.6912C93.375 17.6912 92.9922 17.3202 92.9922 16.8643C92.9922 16.4061 93.375 16.0352 93.8455 16.0352C94.3182 16.0352 94.7011 16.4061 94.7011 16.8643Z" fill="#404040"/>
<path d="M62.56 11.7062C61.8474 11.7062 61.2686 11.1452 61.2686 10.4547C61.2686 9.76408 61.8474 9.20312 62.56 9.20312C63.2726 9.20312 63.8515 9.76408 63.8515 10.4547C63.8515 11.1452 63.2703 11.7062 62.56 11.7062Z" fill="#404040"/>
<path d="M63.4133 10.4558C63.4133 10.9117 63.0305 11.285 62.5577 11.285C62.085 11.285 61.7021 10.914 61.7021 10.4558C61.7021 9.99767 62.085 9.62892 62.5577 9.62892C63.0305 9.62668 63.4133 9.99767 63.4133 10.4558Z" fill="#404040"/>
<path d="M49.5252 24.2333C48.9763 24.2333 48.5312 23.8019 48.5312 23.2723V10.2004C48.5312 9.66851 48.9763 9.23717 49.5252 9.23717H54.804C54.8202 9.23494 54.9101 9.23047 55.0323 9.23047C55.5904 9.23047 57.0041 9.33551 58.1018 10.3032C59.0059 11.1011 59.4648 12.2543 59.4648 13.7338C59.4648 15.0635 59.0451 16.134 58.2148 16.914C56.9834 18.0739 55.2699 18.132 54.9378 18.132H52.7308C52.1819 18.132 51.7368 17.7007 51.7368 17.1688C51.7368 16.6369 52.1819 16.2056 52.7308 16.2056H54.9263C55.0646 16.2056 56.1462 16.181 56.8358 15.5284C57.2624 15.1239 57.4792 14.5182 57.4792 13.7315C57.4792 12.8242 57.2416 12.1515 56.7689 11.7313C56.1854 11.2106 55.3575 11.1547 55.03 11.1547C54.9678 11.1547 54.9263 11.1569 54.9147 11.1569L54.8271 11.1592H50.5192V23.2678C50.5192 23.8019 50.0741 24.2333 49.5252 24.2333Z" fill="#404040"/>
<path d="M49.5249 23.8089C49.2159 23.8089 48.9668 23.5675 48.9668 23.2703V10.1984C48.9668 9.90121 49.2159 9.6576 49.5249 9.6576H54.8037C55.0505 9.63972 56.6371 9.57938 57.8086 10.6141C58.6204 11.3293 59.0286 12.3797 59.0286 13.7318C59.0286 14.9431 58.6527 15.9108 57.9101 16.6103C56.7409 17.7121 55.0804 17.7099 54.919 17.7099H52.7305C52.4237 17.7099 52.1724 17.4685 52.1724 17.1713C52.1724 16.874 52.4214 16.6304 52.7305 16.6304H54.9259C54.9305 16.6304 54.9375 16.6304 54.9421 16.6304C54.9513 16.6304 56.2797 16.6483 57.1399 15.8304C57.6518 15.3432 57.9124 14.6369 57.9124 13.7318C57.9124 12.7015 57.6265 11.9215 57.0614 11.4209C56.1851 10.6387 54.8844 10.7371 54.8729 10.7393C54.8568 10.7393 54.8383 10.7393 54.8245 10.7393H50.0807V23.2703C50.083 23.5675 49.8339 23.8089 49.5249 23.8089Z" fill="#404040"/>
<path d="M62.5594 24.2317C62.0105 24.2317 61.5654 23.8003 61.5654 23.2707V13.3031C61.5654 12.7712 62.0105 12.3398 62.5594 12.3398C63.1083 12.3398 63.5533 12.7712 63.5533 13.3031V23.2707C63.5533 23.8003 63.106 24.2317 62.5594 24.2317Z" fill="#404040"/>
<path d="M62.5591 23.8088C62.2523 23.8088 62.001 23.5674 62.001 23.2702V13.3026C62.001 13.0031 62.25 12.7617 62.5591 12.7617C62.8658 12.7617 63.1172 13.0031 63.1172 13.3026V23.2702C63.1149 23.5674 62.8658 23.8088 62.5591 23.8088Z" fill="#404040"/>
<path d="M87.337 24.2386C87.0925 24.2386 86.8596 24.1537 86.6774 23.9973L79.0878 17.4624C78.8895 17.2926 78.7719 17.0557 78.7558 16.7987C78.7396 16.5417 78.8296 16.2936 79.0048 16.1014C79.1916 15.8958 79.4637 15.7773 79.7474 15.7773C79.9896 15.7773 80.2248 15.8623 80.407 16.0187L87.9966 22.5535C88.1949 22.7256 88.3148 22.9603 88.3286 23.2195C88.3448 23.4765 88.2548 23.7224 88.0796 23.9146C87.8951 24.1202 87.6229 24.2386 87.337 24.2386Z" fill="#404040"/>
<path d="M87.3374 23.8145C87.206 23.8145 87.0745 23.7698 86.9685 23.6782L79.3789 17.1433C79.1483 16.9444 79.1275 16.6025 79.3328 16.3812C79.5357 16.1578 79.8885 16.1376 80.1192 16.3343L87.7064 22.8691C87.937 23.0658 87.9578 23.41 87.7526 23.6312C87.6442 23.7519 87.4897 23.8145 87.3374 23.8145Z" fill="#404040"/>
<path d="M76.3992 24.2333C75.8504 24.2333 75.4053 23.8019 75.4053 23.2723V10.1937C75.4053 9.6618 75.8504 9.23047 76.3992 9.23047H82.1739C82.2085 9.23047 83.2831 9.25505 84.3786 9.77131C85.9052 10.4865 86.7124 11.7425 86.7124 13.4008C86.7124 16.8984 83.6267 17.685 82.5451 17.685H79.8815C79.3327 17.685 78.8876 17.2537 78.8876 16.7218C78.8876 16.1899 79.3327 15.7586 79.8815 15.7586H82.5451C82.5382 15.7586 83.1494 15.734 83.7259 15.3921C84.397 14.9965 84.7245 14.3439 84.7245 13.3985C84.7245 11.3246 82.4068 11.1659 82.1416 11.1547H77.3909V23.27C77.3932 23.8019 76.9481 24.2333 76.3992 24.2333Z" fill="#404040"/>
<path d="M76.3995 23.812C76.0928 23.812 75.8438 23.5707 75.8438 23.2734V10.1949C75.8438 9.89762 76.0928 9.65625 76.3995 9.65625H82.1742C82.1811 9.65625 82.1857 9.65625 82.1926 9.65625C82.2341 9.65625 83.2073 9.69424 84.1875 10.1546C85.5527 10.796 86.2745 11.918 86.2745 13.4042C86.2745 16.5553 83.5117 17.266 82.5455 17.266H79.8818C79.5728 17.266 79.3238 17.0247 79.3238 16.7252C79.3238 16.428 79.5728 16.1844 79.8818 16.1844H82.5455C82.5524 16.1844 83.265 16.1642 83.9545 15.7553C84.7548 15.2837 85.163 14.4925 85.163 13.4019C85.163 10.9033 82.3748 10.7424 82.1649 10.7335H76.9576V23.2712C76.9576 23.5707 76.7086 23.812 76.3995 23.812Z" fill="#404040"/>
<path d="M105.469 24.2378C104.661 24.2378 103.905 24.144 103.22 23.9562C102.508 23.7618 101.878 23.4534 101.352 23.0422C100.817 22.6265 100.39 22.0879 100.084 21.4465C99.7793 20.814 99.6225 20.0564 99.6156 19.1937L99.6133 19.0417L99.6179 19.0261C99.6594 18.5389 100.079 18.1567 100.584 18.1567C101.11 18.1567 101.546 18.5724 101.553 19.082V19.1848C101.553 19.6094 101.606 19.9848 101.707 20.3022C101.809 20.6151 101.949 20.89 102.127 21.1179C102.305 21.3481 102.517 21.547 102.761 21.7102C103.013 21.8778 103.292 22.0164 103.589 22.1214C103.896 22.2287 104.221 22.3091 104.553 22.3538C104.897 22.403 105.254 22.4276 105.616 22.4276C105.875 22.4276 106.154 22.4075 106.442 22.365C106.723 22.3248 107.005 22.26 107.277 22.1706C107.546 22.0834 107.805 21.9717 108.042 21.8331C108.268 21.7035 108.469 21.5448 108.642 21.3593C108.808 21.1827 108.942 20.9704 109.041 20.7291C109.135 20.4944 109.186 20.215 109.186 19.8977C109.186 19.6496 109.152 19.4306 109.08 19.2473C109.009 19.0551 108.914 18.8853 108.794 18.7422C108.672 18.5925 108.529 18.4629 108.367 18.3556C108.181 18.2305 107.989 18.1232 107.793 18.036C107.583 17.9422 107.369 17.8617 107.152 17.7969C106.924 17.7276 106.702 17.6695 106.495 17.6226L103.488 16.9387C103.073 16.8448 102.662 16.7107 102.268 16.5409C101.855 16.3621 101.481 16.123 101.156 15.8324C100.822 15.5307 100.55 15.1642 100.351 14.7418C100.148 14.3149 100.045 13.8054 100.045 13.2288C100.045 12.9807 100.072 12.7013 100.128 12.4041C100.185 12.0912 100.287 11.7716 100.432 11.452C100.58 11.1302 100.78 10.8151 101.027 10.5156C101.283 10.2072 101.606 9.93009 101.989 9.69319C102.371 9.45629 102.828 9.26409 103.352 9.12553C103.87 8.9892 104.475 8.91992 105.148 8.91992C105.824 8.91992 106.476 9.01379 107.094 9.19928C107.719 9.38925 108.284 9.67308 108.776 10.0463C109.274 10.424 109.687 10.8933 110.007 11.4453C110.323 11.9862 110.524 12.6164 110.604 13.3159L110.614 13.3428V13.4009L110.623 13.5014V13.5238C110.609 14.0333 110.169 14.449 109.643 14.449C109.124 14.449 108.69 14.0468 108.665 13.5484L108.656 13.4813C108.596 13.0343 108.46 12.641 108.252 12.308C108.04 11.9683 107.777 11.6845 107.473 11.461C107.159 11.2308 106.802 11.0542 106.407 10.9358C106.006 10.8151 105.582 10.7548 105.15 10.7548C104.694 10.7548 104.263 10.8129 103.868 10.9291C103.483 11.0408 103.149 11.204 102.867 11.4141C102.595 11.6197 102.376 11.8767 102.217 12.1784C102.06 12.4779 101.982 12.831 101.982 13.2288C101.982 13.5216 102.028 13.7719 102.122 13.973C102.215 14.1741 102.344 14.344 102.503 14.4826C102.678 14.6345 102.883 14.7619 103.112 14.8602C103.361 14.9698 103.631 15.0569 103.919 15.1217L107.189 15.8905C107.687 16.0045 108.169 16.1565 108.626 16.3464C109.105 16.5431 109.53 16.8001 109.892 17.1063C110.27 17.4281 110.572 17.8192 110.791 18.2685C111.013 18.7244 111.126 19.2652 111.126 19.8731C111.126 19.9915 111.116 20.1458 111.098 20.3424C111.08 20.5346 111.043 20.7492 110.983 20.9771C110.925 21.2073 110.835 21.4487 110.722 21.6923C110.604 21.9448 110.448 22.1996 110.252 22.4455C110.058 22.6868 109.816 22.9215 109.527 23.1427C109.237 23.3662 108.889 23.5607 108.494 23.7216C108.112 23.878 107.664 24.0054 107.166 24.0993C106.666 24.1909 106.096 24.2378 105.469 24.2378Z" fill="#404040"/>
<path d="M110.394 18.4481C110.201 18.0503 109.935 17.7061 109.603 17.4245C109.276 17.1452 108.888 16.915 108.455 16.7362C108.026 16.5596 107.565 16.4121 107.087 16.3026L103.819 15.5361C103.508 15.4645 103.211 15.3684 102.934 15.2478C102.662 15.1293 102.42 14.9773 102.212 14.7985C102.007 14.622 101.843 14.403 101.725 14.1482C101.608 13.8934 101.546 13.585 101.546 13.2319C101.546 12.767 101.642 12.3491 101.827 11.9915C102.014 11.6317 102.274 11.3278 102.597 11.0842C102.922 10.8383 103.308 10.6528 103.741 10.5277C104.179 10.4003 104.654 10.3355 105.148 10.3355C105.625 10.3355 106.091 10.4025 106.534 10.5366C106.974 10.6685 107.378 10.8674 107.731 11.1266C108.084 11.3836 108.383 11.7099 108.623 12.0943C108.863 12.4787 109.018 12.9279 109.087 13.4308L109.098 13.518C109.105 13.8018 109.345 14.032 109.643 14.032C109.94 14.032 110.18 13.8018 110.187 13.518L110.178 13.4107C110.178 13.4084 110.178 13.4084 110.178 13.4084C110.178 13.4062 110.178 13.4017 110.175 13.3995C110.101 12.7447 109.919 12.1591 109.626 11.6585C109.334 11.1557 108.958 10.7266 108.506 10.3846C108.056 10.0449 107.537 9.78346 106.963 9.60914C106.391 9.43705 105.78 9.34766 105.146 9.34766C104.509 9.34766 103.944 9.41247 103.464 9.53762C102.985 9.66501 102.567 9.83933 102.221 10.0539C101.878 10.2684 101.589 10.5143 101.366 10.7847C101.142 11.0551 100.962 11.3389 100.828 11.6272C100.697 11.9155 100.605 12.2038 100.554 12.481C100.503 12.7559 100.478 13.0106 100.478 13.2319C100.478 13.7459 100.568 14.1974 100.743 14.5684C100.921 14.9416 101.158 15.2634 101.449 15.5249C101.737 15.7841 102.074 15.9964 102.443 16.1574C102.812 16.316 103.195 16.4412 103.584 16.5306L106.592 17.2145C106.808 17.2636 107.041 17.324 107.279 17.3977C107.516 17.4692 107.747 17.5564 107.973 17.657C108.194 17.7553 108.409 17.876 108.612 18.0123C108.81 18.1442 108.985 18.3028 109.133 18.4839C109.28 18.6649 109.4 18.8727 109.488 19.1074C109.576 19.3398 109.619 19.608 109.619 19.9053C109.619 20.274 109.562 20.607 109.444 20.8931C109.327 21.1791 109.165 21.4339 108.965 21.6485C108.764 21.8653 108.526 22.053 108.261 22.205C107.994 22.3592 107.708 22.4843 107.412 22.5782C107.115 22.6743 106.808 22.7458 106.502 22.7883C106.193 22.833 105.895 22.8553 105.611 22.8553C105.231 22.8553 104.853 22.8285 104.486 22.7771C104.119 22.7257 103.766 22.6408 103.432 22.5223C103.1 22.4039 102.789 22.2497 102.505 22.0619C102.224 21.8742 101.977 21.644 101.769 21.3758C101.564 21.1099 101.4 20.7925 101.283 20.4349C101.167 20.0773 101.107 19.6594 101.107 19.1923V19.094C101.103 18.8124 100.868 18.5844 100.575 18.5844C100.282 18.5844 100.047 18.8124 100.042 19.094C100.042 19.0962 100.042 19.0962 100.042 19.1007C100.042 19.1029 100.042 19.1052 100.042 19.1074V19.1946C100.047 19.9924 100.19 20.6919 100.469 21.273C100.745 21.8541 101.131 22.3391 101.615 22.7167C102.097 23.0944 102.673 23.3738 103.326 23.5526C103.976 23.7291 104.694 23.8185 105.457 23.8185C106.059 23.8185 106.601 23.7738 107.069 23.6867C107.537 23.5973 107.954 23.4811 108.314 23.3358C108.674 23.1905 108.988 23.014 109.244 22.8151C109.5 22.6162 109.719 22.4061 109.894 22.1893C110.067 21.9725 110.208 21.7468 110.311 21.5211C110.415 21.2976 110.494 21.0808 110.547 20.8774C110.6 20.6741 110.634 20.4796 110.65 20.3053C110.666 20.1265 110.676 19.9857 110.676 19.8762C110.685 19.3264 110.588 18.8482 110.394 18.4481Z" fill="#404040"/>
<path d="M171.784 24.2406C171.544 24.2406 171.311 24.1557 171.127 24.0015L163.519 17.4443C163.111 17.0934 163.072 16.4855 163.434 16.0877C163.623 15.8821 163.893 15.7637 164.179 15.7637C164.423 15.7637 164.656 15.8508 164.838 16.0073L172.446 22.5622C172.854 22.9108 172.894 23.521 172.531 23.9188C172.34 24.1221 172.068 24.2406 171.784 24.2406Z" fill="#404040"/>
<path d="M171.785 23.817C171.653 23.817 171.522 23.7723 171.416 23.6807L163.81 17.1258C163.579 16.9291 163.559 16.5872 163.761 16.3637C163.964 16.1402 164.317 16.1201 164.548 16.3167L172.156 22.8717C172.387 23.0683 172.407 23.4103 172.204 23.6338C172.091 23.7544 171.939 23.817 171.785 23.817Z" fill="#404040"/>
<path d="M160.846 24.2333C160.298 24.2333 159.853 23.8019 159.853 23.2723V10.1937C159.853 9.6618 160.298 9.23047 160.846 9.23047H166.619C166.653 9.23047 167.728 9.25505 168.824 9.77131C170.35 10.4865 171.157 11.7425 171.157 13.4008C171.157 16.8984 168.072 17.685 166.99 17.685H164.326C163.778 17.685 163.333 17.2537 163.333 16.7218C163.333 16.1899 163.778 15.7586 164.326 15.7586H166.99C166.983 15.7586 167.594 15.734 168.173 15.3921C168.844 14.9965 169.172 14.3439 169.172 13.3985C169.172 11.3246 166.854 11.1659 166.589 11.1547H161.838V23.27C161.84 23.8019 161.395 24.2333 160.846 24.2333Z" fill="#404040"/>
<path d="M160.846 23.812C160.537 23.812 160.288 23.5707 160.288 23.2734V10.1949C160.288 9.89762 160.537 9.65625 160.846 9.65625H166.619C166.625 9.65625 166.632 9.65625 166.637 9.65625C166.678 9.65625 167.652 9.69424 168.634 10.1546C169.999 10.796 170.721 11.918 170.721 13.4042C170.721 16.5553 167.958 17.266 166.99 17.266H164.326C164.017 17.266 163.768 17.0247 163.768 16.7252C163.768 16.428 164.017 16.1844 164.326 16.1844H166.99C166.997 16.1844 167.709 16.1642 168.399 15.7553C169.199 15.2837 169.607 14.4925 169.607 13.4019C169.607 10.9033 166.817 10.7424 166.607 10.7335H161.4V23.2712C161.404 23.5707 161.155 23.812 160.846 23.812Z" fill="#404040"/>
<path d="M137.614 24.2333C134.413 24.2333 131.81 21.8889 131.81 19.0059V10.1937C131.81 9.6618 132.255 9.23047 132.804 9.23047C133.352 9.23047 133.797 9.6618 133.797 10.1937V19.0059C133.797 20.8273 135.511 22.309 137.616 22.309C139.722 22.309 141.433 20.8273 141.433 19.0059V10.1937C141.433 9.6618 141.878 9.23047 142.427 9.23047C142.976 9.23047 143.421 9.6618 143.421 10.1937V19.0059C143.421 21.8889 140.815 24.2333 137.614 24.2333Z" fill="#404040"/>
<path d="M137.614 23.8101C134.653 23.8101 132.245 21.6556 132.245 19.0051V10.1929C132.245 9.89566 132.494 9.6543 132.803 9.6543C133.11 9.6543 133.361 9.89566 133.361 10.1929V19.0051C133.361 21.0589 135.268 22.7306 137.616 22.7306C139.962 22.7306 141.871 21.0589 141.871 19.0051V10.1929C141.871 9.89566 142.12 9.6543 142.429 9.6543C142.738 9.6543 142.987 9.89566 142.987 10.1929V19.0051C142.983 21.6556 140.575 23.8101 137.614 23.8101Z" fill="#404040"/>
<path d="M157.051 24.233C156.638 24.233 156.276 23.9961 156.126 23.6273L151.645 12.7658L147.134 23.6318C146.984 23.9961 146.622 24.233 146.212 24.233C146.087 24.233 145.965 24.2106 145.85 24.1682C145.465 24.0207 145.218 23.672 145.218 23.2787C145.218 23.158 145.243 23.0395 145.289 22.9256L150.697 9.89618V9.88501L150.736 9.80232L150.766 9.74421L150.771 9.74645L150.787 9.72633L150.889 9.80232L151.161 9.93194L150.801 9.69057L150.824 9.65482C150.845 9.62576 150.861 9.60341 150.882 9.5833C150.886 9.57436 150.902 9.55648 150.921 9.5386L150.99 9.47379L151.064 9.41568L151.135 9.36875L151.163 9.35534C151.182 9.34417 151.202 9.33523 151.221 9.32629L151.274 9.3017L151.375 9.26818L151.454 9.2503L151.53 9.23913L151.61 9.23242H151.698C151.728 9.23466 151.756 9.23689 151.786 9.24136C151.802 9.2436 151.839 9.24807 151.839 9.24807L151.915 9.26594C151.931 9.27041 151.97 9.28159 151.979 9.28382L152.023 9.29276L152.058 9.31288C152.086 9.32405 152.116 9.33746 152.143 9.35534L152.185 9.37769C152.185 9.37769 152.238 9.41345 152.261 9.43356C152.298 9.46261 152.328 9.4872 152.351 9.50955L152.365 9.51849L152.406 9.56542C152.418 9.57659 152.438 9.60341 152.461 9.63247L152.496 9.67716L152.503 9.69504C152.512 9.71069 152.561 9.80008 152.561 9.80008L157.973 22.9278C158.07 23.1647 158.068 23.4239 157.962 23.6586C157.856 23.8933 157.662 24.0743 157.413 24.1682C157.293 24.2129 157.173 24.233 157.051 24.233Z" fill="#404040"/>
<path d="M157.569 23.084L152.166 9.98981C152.161 9.98311 152.159 9.97417 152.154 9.96523C152.152 9.96076 152.15 9.95629 152.147 9.95182C152.136 9.92947 152.124 9.90936 152.11 9.88924C152.11 9.88701 152.108 9.88701 152.108 9.88477C152.094 9.86689 152.081 9.85125 152.067 9.83337C152.062 9.8289 152.06 9.82443 152.055 9.8222C152.039 9.80432 152.021 9.78867 152.002 9.77303C152 9.77079 151.995 9.76856 151.993 9.76632C151.977 9.75291 151.958 9.74174 151.94 9.73057C151.935 9.7261 151.931 9.72386 151.926 9.72163C151.903 9.70822 151.88 9.69928 151.859 9.69034C151.857 9.6881 151.857 9.6881 151.852 9.6881C151.848 9.68587 151.841 9.68363 151.838 9.68363C151.829 9.6814 151.82 9.67693 151.811 9.67469C151.801 9.67246 151.792 9.67022 151.785 9.66799C151.776 9.66575 151.767 9.66352 151.758 9.66128C151.748 9.65905 151.742 9.65681 151.732 9.65681C151.723 9.65458 151.714 9.65458 151.705 9.65458C151.695 9.65234 151.688 9.65234 151.679 9.65234C151.67 9.65234 151.661 9.65234 151.652 9.65234C151.642 9.65234 151.635 9.65234 151.626 9.65234C151.617 9.65234 151.608 9.65234 151.599 9.65458C151.589 9.65681 151.582 9.65681 151.573 9.65681C151.564 9.65905 151.555 9.65905 151.545 9.66128C151.536 9.66352 151.527 9.66575 151.52 9.66799C151.511 9.67022 151.502 9.67246 151.495 9.67469C151.486 9.67693 151.476 9.67916 151.467 9.68363C151.462 9.68587 151.458 9.68587 151.451 9.69034C151.446 9.69034 151.446 9.69257 151.442 9.69481C151.432 9.69704 151.423 9.70151 151.414 9.70598C151.407 9.71045 151.398 9.71269 151.391 9.71716C151.384 9.71939 151.375 9.7261 151.368 9.73057C151.361 9.73504 151.352 9.7395 151.345 9.74397C151.338 9.74844 151.331 9.75291 151.324 9.75738C151.317 9.76409 151.308 9.76856 151.301 9.77526C151.294 9.77973 151.287 9.78644 151.283 9.79091C151.276 9.79761 151.269 9.80432 151.262 9.80879C151.255 9.81549 151.248 9.8222 151.243 9.8289C151.236 9.8356 151.232 9.84007 151.225 9.84678C151.218 9.85572 151.213 9.86242 151.206 9.86913C151.202 9.87583 151.197 9.88254 151.193 9.88924C151.188 9.89595 151.181 9.90265 151.179 9.91159C151.174 9.9183 151.17 9.92724 151.165 9.93394C151.16 9.94064 151.158 9.94735 151.153 9.95405C151.149 9.96299 151.144 9.97193 151.14 9.98087C151.14 9.98311 151.137 9.98534 151.135 9.98758L145.699 23.084C145.672 23.1466 145.66 23.2136 145.66 23.2785C145.66 23.4885 145.794 23.6897 146.013 23.7724C146.08 23.7969 146.149 23.8081 146.218 23.8081C146.44 23.8081 146.65 23.6807 146.735 23.4707L151.652 11.628L156.536 23.4707C156.621 23.6807 156.831 23.8081 157.055 23.8081C157.124 23.8081 157.193 23.7969 157.258 23.7724C157.542 23.6673 157.68 23.3589 157.569 23.084Z" fill="#404040"/>
<path d="M175.359 24.24C174.81 24.24 174.365 23.8086 174.365 23.2767V10.1937C174.365 9.6618 174.81 9.23047 175.359 9.23047H183.834C184.383 9.23047 184.828 9.6618 184.828 10.1937C184.828 10.7256 184.383 11.1569 183.834 11.1569H176.353V22.3135H183.834C184.383 22.3135 184.828 22.7448 184.828 23.2767C184.828 23.8086 184.383 24.24 183.834 24.24H175.359Z" fill="#404040"/>
<path d="M183.834 23.8187H175.359C175.052 23.8187 174.801 23.5774 174.801 23.2779V10.1949C174.801 9.89762 175.05 9.65625 175.359 9.65625H183.834C184.143 9.65625 184.392 9.89762 184.392 10.1949C184.392 10.4921 184.143 10.7335 183.834 10.7335H175.917V22.737H183.834C184.143 22.737 184.392 22.9784 184.392 23.2779C184.392 23.5774 184.141 23.8187 183.834 23.8187Z" fill="#404040"/>
<path d="M178.466 17.698C177.917 17.698 177.472 17.2666 177.472 16.7347C177.472 16.2028 177.917 15.7715 178.466 15.7715H183.025C183.571 15.7715 184.019 16.2028 184.019 16.7347C184.019 17.2666 183.574 17.698 183.025 17.698H178.466Z" fill="#404040"/>
<path d="M183.024 17.277H178.465C178.158 17.277 177.909 17.0356 177.909 16.7362C177.909 16.4389 178.158 16.1953 178.465 16.1953H183.024C183.331 16.1953 183.58 16.4367 183.58 16.7362C183.58 17.0356 183.331 17.277 183.024 17.277Z" fill="#404040"/>
<path d="M128.973 24.2323C128.728 24.2323 128.493 24.1451 128.313 23.9887L126.32 22.2812C126.219 22.3684 126.115 22.4533 126.014 22.5315C124.598 23.6289 122.817 24.2323 121.002 24.2323C116.572 24.2323 112.968 20.7414 112.968 16.4482C112.968 12.155 116.572 8.66406 121.002 8.66406C125.433 8.66406 129.035 12.1572 129.035 16.4482C129.035 16.9801 128.59 17.4114 128.041 17.4114C127.492 17.4114 127.047 16.9801 127.047 16.4482C127.047 13.2188 124.335 10.5905 121.002 10.5905C117.668 10.5905 114.956 13.2188 114.956 16.4482C114.956 19.6798 117.668 22.3058 121.002 22.3058C122.388 22.3058 123.694 21.8633 124.773 21.0275C124.787 21.0163 124.803 21.0051 124.817 20.9939L120.35 17.1633C120.151 16.9912 120.032 16.7566 120.018 16.4973C120.002 16.2403 120.092 15.9945 120.267 15.8023C120.454 15.5967 120.726 15.4782 121.012 15.4782C121.254 15.4782 121.487 15.5632 121.669 15.7196L129.632 22.5494C130.04 22.9025 130.08 23.5126 129.717 23.9082C129.528 24.1161 129.256 24.2323 128.973 24.2323Z" fill="#404040"/>
<path d="M129.341 22.8663L121.378 16.0364C121.147 15.8398 120.795 15.8599 120.592 16.0834C120.386 16.3046 120.409 16.6466 120.64 16.8455L125.476 20.9934C125.338 21.1208 125.195 21.2437 125.047 21.3577C123.889 22.2539 122.49 22.7299 121.002 22.7299C117.428 22.7299 114.52 19.9117 114.52 16.4477C114.52 12.9836 117.428 10.1654 121.002 10.1654C124.574 10.1654 127.482 12.9836 127.482 16.4477C127.482 16.7449 127.732 16.9885 128.041 16.9885C128.35 16.9885 128.596 16.7471 128.596 16.4477C128.596 12.3891 125.19 9.08594 121 9.08594C116.812 9.08594 113.403 12.3891 113.403 16.4477C113.403 20.5062 116.812 23.8094 121 23.8094C122.718 23.8094 124.401 23.2372 125.739 22.2003C125.937 22.0483 126.126 21.8829 126.309 21.7108L128.599 23.6753C128.705 23.7669 128.836 23.8116 128.968 23.8116C129.122 23.8116 129.277 23.749 129.385 23.6306C129.595 23.4049 129.572 23.0629 129.341 22.8663Z" fill="#404040"/>
</g>
<defs>
<linearGradient id="paint0_linear" x1="7.90364" y1="27.7538" x2="13.5607" y2="8.35319" gradientUnits="userSpaceOnUse">
<stop offset="0.4435" stop-color="#324B64"/>
<stop offset="0.8499" stop-color="#212F3E"/>
</linearGradient>
<linearGradient id="paint1_linear" x1="11.1435" y1="3.70017" x2="36.8948" y2="4.80923" gradientUnits="userSpaceOnUse">
<stop offset="0.4798" stop-color="#C5283F"/>
<stop offset="0.8344" stop-color="#9D1E2F"/>
</linearGradient>
<linearGradient id="paint2_linear" x1="26.6285" y1="24.8412" x2="31.5781" y2="7.51026" gradientUnits="userSpaceOnUse">
<stop stop-color="#529AB7"/>
<stop offset="0.9967" stop-color="#87CCE6"/>
</linearGradient>
<clipPath id="clip0">
<rect width="184.828" height="40" fill="white"/>
</clipPath>
</defs>
</svg>
